<svg width="286" height="59" fill="none" xmlns="http://www.w3.org/2000/svg"><path d="M284 37.348c0 11.829-7.726 19.275-20 19.275-12.274 0-20-7.446-20-19.275 0-12.694 14.338-29.83 18.735-34.786.156-.177.35-.318.569-.415a1.719 1.719 0 011.394 0c.218.097.412.238.569.415C269.663 7.518 284 24.654 284 37.348z" stroke="#5FCF80" stroke-width="3" stroke-miterlimit="10" stroke-linecap="square"/><path d="M274 34c0 2.556-1.054 5.007-2.929 6.815-1.875 1.807-4.419 2.823-7.071 2.823" stroke="#5FCF80" stroke-width="3" stroke-linecap="round" stroke-linejoin="round"/><path d="M15.164 51.797l-10.64-24.75-.891-2.367.164 8.484V53.93H0V19.266h5.25l12.07 27.609 11.953-27.61h5.11V53.93h-3.938V33.07l.164-8.297-.867 2.368-10.617 24.656h-3.96zm41.508-18.82c-1.14-1.375-2.711-2.063-4.711-2.063-2 0-3.633.711-4.898 2.133-1.266 1.406-2.008 3.336-2.227 5.789h13.57c0-2.547-.578-4.5-1.734-5.86zm-3.938 21.492c-3.734 0-6.68-1.188-8.836-3.563-2.14-2.375-3.21-5.625-3.21-9.75 0-3.984 1.039-7.21 3.117-9.68 2.078-2.484 4.812-3.75 8.203-3.796 3.187 0 5.71 1.093 7.57 3.28 1.875 2.173 2.813 5.08 2.813 8.72 0 .187-.008.53-.024 1.03v1.08H44.72c.047 2.92.797 5.202 2.25 6.843 1.468 1.625 3.437 2.437 5.906 2.437 2.719 0 5.445-.718 8.18-2.156l.61 3.164c-2.61 1.594-5.587 2.39-8.93 2.39zm23.297-.07c-2.531 0-4.328-.618-5.39-1.852-1.063-1.234-1.625-3.227-1.688-5.977V31.125h-3.82l.164-2.578 3.633-.328 1.336-5.883 2.578-.094v5.977h7.148v2.906h-7.148v14.742c0 1.953.297 3.328.89 4.125.594.797 1.61 1.196 3.047 1.196.516 0 1.633-.126 3.352-.376l.164 3.094c-1.86.328-3.281.492-4.266.492zm23.25-21.422c-1.14-1.375-2.71-2.063-4.71-2.063s-3.633.711-4.9 2.133c-1.265 1.406-2.007 3.336-2.226 5.789h13.571c0-2.547-.579-4.5-1.735-5.86zm-3.937 21.492c-3.735 0-6.68-1.188-8.836-3.563-2.14-2.375-3.211-5.625-3.211-9.75 0-3.984 1.039-7.21 3.117-9.68 2.078-2.484 4.813-3.75 8.203-3.796 3.188 0 5.711 1.093 7.57 3.28 1.875 2.173 2.813 5.08 2.813 8.72 0 .187-.008.53-.023 1.03v1.08H87.328c.047 2.92.797 5.202 2.25 6.843 1.469 1.625 3.438 2.437 5.906 2.437 2.72 0 5.446-.718 8.18-2.156l.609 3.164c-2.609 1.594-5.586 2.39-8.929 2.39zm26.625-26.485c.703 0 1.343.047 1.922.141l-.141 3.61a11.15 11.15 0 00-1.875-.188c-2.188 0-3.969.765-5.344 2.297-1.359 1.515-2.039 3.398-2.039 5.648V53.93h-3.914c-.016-15.782-.023-24.352-.023-25.711h3.257l.375 4.617c.891-1.453 2.024-2.625 3.399-3.516 1.375-.89 2.836-1.336 4.383-1.336zm17.648 2.953c-2.484 0-4.39.86-5.719 2.579-1.312 1.703-1.968 4.21-1.968 7.523 0 6.781 2.554 10.172 7.664 10.172 1.265 0 2.375-.258 3.328-.773a5.815 5.815 0 002.273-2.204c.563-.953.977-2.023 1.242-3.21.282-1.188.422-2.508.422-3.962 0-1.968-.234-3.687-.703-5.156-.453-1.468-1.234-2.664-2.344-3.586-1.109-.922-2.507-1.383-4.195-1.383zm.399-3.257c2.281 0 4.25.578 5.906 1.734 1.656 1.156 2.898 2.727 3.726 4.711.829 1.984 1.243 4.258 1.243 6.82 0 2.657-.414 4.992-1.243 7.008-.812 2.016-2.054 3.61-3.726 4.781-1.656 1.157-3.641 1.735-5.953 1.735-1.703 0-3.258-.367-4.664-1.102a10.183 10.183 0 01-3.516-3l-.398 3.563h-3.352V18.234l3.914-.234v8.508c0 2.094-.031 3.89-.094 5.39a9.684 9.684 0 013.516-3.07 9.813 9.813 0 014.641-1.148zm19.265 13.453c0 3.047.672 5.492 2.016 7.336 1.359 1.828 3.336 2.742 5.93 2.742 2.562 0 4.492-.914 5.789-2.742 1.312-1.828 1.968-4.29 1.968-7.383 0-3.14-.648-5.61-1.945-7.406-1.281-1.813-3.242-2.72-5.883-2.72-2.562 0-4.515.923-5.859 2.767-1.344 1.843-2.016 4.312-2.016 7.406zm19.758-.07c0 3.984-1.062 7.218-3.188 9.703-2.124 2.468-5.062 3.703-8.812 3.703-3.609 0-6.484-1.25-8.625-3.75-2.125-2.5-3.187-5.711-3.187-9.633 0-4 1.07-7.234 3.21-9.703 2.141-2.469 5.079-3.703 8.813-3.703 3.672 0 6.555 1.242 8.648 3.726 2.094 2.469 3.141 5.688 3.141 9.657zm12.469 13.335c-2.5 0-4.274-.671-5.321-2.015-1.031-1.344-1.546-3.68-1.546-7.008v-27.14l3.89-.235v25.828c0 1.063.008 1.914.024 2.555.031.64.093 1.273.187 1.898.094.61.219 1.07.375 1.383.156.313.383.602.68.867.297.25.648.422 1.054.516.422.078.938.117 1.547.117.5 0 1.485-.094 2.953-.281l.211 3.117c-1.609.266-2.961.398-4.054.398zm11.062-26.18V53.93h-3.937V28.219h3.937zm0-9.35v4.64h-3.937v-4.64h3.937zm18.258 35.6c-3.781 0-6.742-1.226-8.883-3.679-2.125-2.453-3.187-5.664-3.187-9.633.015-4 1.101-7.242 3.258-9.726 2.171-2.5 5.14-3.75 8.906-3.75 1.328 0 2.609.164 3.844.492 1.25.328 2.234.758 2.953 1.289l-1.078 3.047c-1.829-.985-3.758-1.477-5.79-1.477-2.484 0-4.453.907-5.906 2.719-1.437 1.813-2.156 4.29-2.156 7.43 0 3.062.711 5.492 2.133 7.289 1.437 1.781 3.422 2.672 5.953 2.672 2.016 0 4.078-.547 6.187-1.641l.493 3.117c-1.704 1.235-3.946 1.852-6.727 1.852z" fill="#5FCF80"/></svg>